<mxfile host="app.diagrams.net" agent="Mozilla/5.0 (Windows NT 10.0; Win64; x64) AppleWebKit/537.36 (KHTML, like Gecko) Chrome/129.0.0.0 Safari/537.36 Edg/129.0.0.0" version="24.7.17">
  <diagram name="Page-1" id="4Tdd6PyhLGQLD6WwHYLn">
    <mxGraphModel dx="983" dy="571" grid="1" gridSize="10" guides="1" tooltips="1" connect="1" arrows="1" fold="1" page="1" pageScale="1" pageWidth="850" pageHeight="1100" math="0" shadow="0">
      <root>
        <mxCell id="0" />
        <mxCell id="1" parent="0" />
        <mxCell id="jB3YL_qzwZQaWtv_9ymb-6" value="" style="edgeStyle=orthogonalEdgeStyle;rounded=0;orthogonalLoop=1;jettySize=auto;html=1;" edge="1" parent="1" source="jB3YL_qzwZQaWtv_9ymb-2" target="jB3YL_qzwZQaWtv_9ymb-5">
          <mxGeometry relative="1" as="geometry" />
        </mxCell>
        <mxCell id="jB3YL_qzwZQaWtv_9ymb-2" value="Pet Store System" style="ellipse;whiteSpace=wrap;html=1;" vertex="1" parent="1">
          <mxGeometry x="200" y="210" width="120" height="50" as="geometry" />
        </mxCell>
        <mxCell id="jB3YL_qzwZQaWtv_9ymb-8" value="" style="edgeStyle=orthogonalEdgeStyle;rounded=0;orthogonalLoop=1;jettySize=auto;html=1;" edge="1" parent="1" source="jB3YL_qzwZQaWtv_9ymb-5" target="jB3YL_qzwZQaWtv_9ymb-7">
          <mxGeometry relative="1" as="geometry" />
        </mxCell>
        <mxCell id="jB3YL_qzwZQaWtv_9ymb-13" value="" style="edgeStyle=orthogonalEdgeStyle;rounded=0;orthogonalLoop=1;jettySize=auto;html=1;" edge="1" parent="1" source="jB3YL_qzwZQaWtv_9ymb-5" target="jB3YL_qzwZQaWtv_9ymb-12">
          <mxGeometry relative="1" as="geometry" />
        </mxCell>
        <mxCell id="jB3YL_qzwZQaWtv_9ymb-15" value="" style="edgeStyle=orthogonalEdgeStyle;rounded=0;orthogonalLoop=1;jettySize=auto;html=1;" edge="1" parent="1" source="jB3YL_qzwZQaWtv_9ymb-5" target="jB3YL_qzwZQaWtv_9ymb-14">
          <mxGeometry relative="1" as="geometry" />
        </mxCell>
        <mxCell id="jB3YL_qzwZQaWtv_9ymb-5" value="Main Website" style="whiteSpace=wrap;html=1;" vertex="1" parent="1">
          <mxGeometry x="200" y="330" width="120" height="60" as="geometry" />
        </mxCell>
        <mxCell id="jB3YL_qzwZQaWtv_9ymb-17" value="" style="edgeStyle=orthogonalEdgeStyle;rounded=0;orthogonalLoop=1;jettySize=auto;html=1;" edge="1" parent="1" source="jB3YL_qzwZQaWtv_9ymb-7" target="jB3YL_qzwZQaWtv_9ymb-16">
          <mxGeometry relative="1" as="geometry" />
        </mxCell>
        <mxCell id="jB3YL_qzwZQaWtv_9ymb-7" value="Customer" style="whiteSpace=wrap;html=1;" vertex="1" parent="1">
          <mxGeometry x="40" y="440" width="120" height="35" as="geometry" />
        </mxCell>
        <mxCell id="jB3YL_qzwZQaWtv_9ymb-19" value="" style="edgeStyle=orthogonalEdgeStyle;rounded=0;orthogonalLoop=1;jettySize=auto;html=1;" edge="1" parent="1" source="jB3YL_qzwZQaWtv_9ymb-12" target="jB3YL_qzwZQaWtv_9ymb-18">
          <mxGeometry relative="1" as="geometry" />
        </mxCell>
        <mxCell id="jB3YL_qzwZQaWtv_9ymb-12" value="Supplier" style="whiteSpace=wrap;html=1;" vertex="1" parent="1">
          <mxGeometry x="200" y="440" width="120" height="32.5" as="geometry" />
        </mxCell>
        <mxCell id="jB3YL_qzwZQaWtv_9ymb-21" value="" style="edgeStyle=orthogonalEdgeStyle;rounded=0;orthogonalLoop=1;jettySize=auto;html=1;" edge="1" parent="1" source="jB3YL_qzwZQaWtv_9ymb-14" target="jB3YL_qzwZQaWtv_9ymb-20">
          <mxGeometry relative="1" as="geometry" />
        </mxCell>
        <mxCell id="jB3YL_qzwZQaWtv_9ymb-14" value="Paymet System" style="whiteSpace=wrap;html=1;" vertex="1" parent="1">
          <mxGeometry x="340" y="427.5" width="120" height="42.5" as="geometry" />
        </mxCell>
        <mxCell id="jB3YL_qzwZQaWtv_9ymb-23" value="" style="edgeStyle=orthogonalEdgeStyle;rounded=0;orthogonalLoop=1;jettySize=auto;html=1;" edge="1" parent="1" source="jB3YL_qzwZQaWtv_9ymb-16" target="jB3YL_qzwZQaWtv_9ymb-22">
          <mxGeometry relative="1" as="geometry" />
        </mxCell>
        <mxCell id="jB3YL_qzwZQaWtv_9ymb-16" value="Browsr product&lt;div&gt;Add to Cart&lt;/div&gt;&lt;div&gt;Place Order&lt;/div&gt;&lt;div&gt;View Order History&lt;/div&gt;" style="whiteSpace=wrap;html=1;" vertex="1" parent="1">
          <mxGeometry x="40" y="542.5" width="120" height="60" as="geometry" />
        </mxCell>
        <mxCell id="jB3YL_qzwZQaWtv_9ymb-25" value="" style="edgeStyle=orthogonalEdgeStyle;rounded=0;orthogonalLoop=1;jettySize=auto;html=1;" edge="1" parent="1" source="jB3YL_qzwZQaWtv_9ymb-18" target="jB3YL_qzwZQaWtv_9ymb-24">
          <mxGeometry relative="1" as="geometry" />
        </mxCell>
        <mxCell id="jB3YL_qzwZQaWtv_9ymb-18" value="Supplier Pet Product&lt;div&gt;Update Inventory&lt;/div&gt;&lt;div&gt;Send Invoices&lt;/div&gt;&lt;div&gt;Order Status&lt;/div&gt;" style="whiteSpace=wrap;html=1;" vertex="1" parent="1">
          <mxGeometry x="200" y="538.75" width="120" height="60" as="geometry" />
        </mxCell>
        <mxCell id="jB3YL_qzwZQaWtv_9ymb-27" value="" style="edgeStyle=orthogonalEdgeStyle;rounded=0;orthogonalLoop=1;jettySize=auto;html=1;" edge="1" parent="1" source="jB3YL_qzwZQaWtv_9ymb-20" target="jB3YL_qzwZQaWtv_9ymb-26">
          <mxGeometry relative="1" as="geometry" />
        </mxCell>
        <mxCell id="jB3YL_qzwZQaWtv_9ymb-20" value="Process Payments&lt;div&gt;Payments Gatway&lt;/div&gt;&lt;div&gt;Payment Confirmation&lt;/div&gt;&lt;div&gt;Transataction Record&lt;/div&gt;" style="whiteSpace=wrap;html=1;" vertex="1" parent="1">
          <mxGeometry x="340" y="541.25" width="120" height="78.75" as="geometry" />
        </mxCell>
        <mxCell id="jB3YL_qzwZQaWtv_9ymb-29" value="" style="edgeStyle=orthogonalEdgeStyle;rounded=0;orthogonalLoop=1;jettySize=auto;html=1;" edge="1" parent="1" source="jB3YL_qzwZQaWtv_9ymb-22" target="jB3YL_qzwZQaWtv_9ymb-28">
          <mxGeometry relative="1" as="geometry" />
        </mxCell>
        <mxCell id="jB3YL_qzwZQaWtv_9ymb-22" value="Admin user" style="whiteSpace=wrap;html=1;" vertex="1" parent="1">
          <mxGeometry x="40" y="650" width="120" height="27.5" as="geometry" />
        </mxCell>
        <mxCell id="jB3YL_qzwZQaWtv_9ymb-31" value="" style="edgeStyle=orthogonalEdgeStyle;rounded=0;orthogonalLoop=1;jettySize=auto;html=1;" edge="1" parent="1" source="jB3YL_qzwZQaWtv_9ymb-24" target="jB3YL_qzwZQaWtv_9ymb-30">
          <mxGeometry relative="1" as="geometry">
            <Array as="points">
              <mxPoint x="260" y="710" />
              <mxPoint x="265" y="710" />
            </Array>
          </mxGeometry>
        </mxCell>
        <mxCell id="jB3YL_qzwZQaWtv_9ymb-24" value="Delivery" style="whiteSpace=wrap;html=1;" vertex="1" parent="1">
          <mxGeometry x="200" y="650" width="120" height="31.25" as="geometry" />
        </mxCell>
        <mxCell id="jB3YL_qzwZQaWtv_9ymb-33" value="" style="edgeStyle=orthogonalEdgeStyle;rounded=0;orthogonalLoop=1;jettySize=auto;html=1;" edge="1" parent="1" source="jB3YL_qzwZQaWtv_9ymb-26" target="jB3YL_qzwZQaWtv_9ymb-32">
          <mxGeometry relative="1" as="geometry" />
        </mxCell>
        <mxCell id="jB3YL_qzwZQaWtv_9ymb-26" value="Shipping" style="whiteSpace=wrap;html=1;" vertex="1" parent="1">
          <mxGeometry x="340" y="650" width="120" height="40.63" as="geometry" />
        </mxCell>
        <mxCell id="jB3YL_qzwZQaWtv_9ymb-35" value="" style="edgeStyle=orthogonalEdgeStyle;rounded=0;orthogonalLoop=1;jettySize=auto;html=1;" edge="1" parent="1" source="jB3YL_qzwZQaWtv_9ymb-28" target="jB3YL_qzwZQaWtv_9ymb-34">
          <mxGeometry relative="1" as="geometry" />
        </mxCell>
        <mxCell id="jB3YL_qzwZQaWtv_9ymb-28" value="Manage Products&lt;div&gt;Manage Inventory&lt;/div&gt;&lt;div&gt;View Oders&lt;/div&gt;" style="whiteSpace=wrap;html=1;" vertex="1" parent="1">
          <mxGeometry x="40" y="741.25" width="120" height="60" as="geometry" />
        </mxCell>
        <mxCell id="jB3YL_qzwZQaWtv_9ymb-30" value="Delivery Pet Production&lt;div&gt;Update&amp;nbsp; delivery status&lt;span style=&quot;background-color: initial;&quot;&gt;&amp;nbsp;&lt;/span&gt;&lt;/div&gt;&lt;div&gt;&lt;span style=&quot;background-color: initial;&quot;&gt;Notify customer&lt;/span&gt;&lt;/div&gt;" style="whiteSpace=wrap;html=1;" vertex="1" parent="1">
          <mxGeometry x="195" y="710" width="130" height="76.88" as="geometry" />
        </mxCell>
        <mxCell id="jB3YL_qzwZQaWtv_9ymb-32" value="Tracking Shipments&amp;nbsp;&lt;div&gt;Update shipping&amp;nbsp; info&lt;/div&gt;&lt;div&gt;Confirm delivery&lt;/div&gt;" style="whiteSpace=wrap;html=1;" vertex="1" parent="1">
          <mxGeometry x="340" y="741.255" width="120" height="60" as="geometry" />
        </mxCell>
        <mxCell id="jB3YL_qzwZQaWtv_9ymb-37" value="" style="edgeStyle=orthogonalEdgeStyle;rounded=0;orthogonalLoop=1;jettySize=auto;html=1;" edge="1" parent="1" source="jB3YL_qzwZQaWtv_9ymb-34" target="jB3YL_qzwZQaWtv_9ymb-36">
          <mxGeometry relative="1" as="geometry" />
        </mxCell>
        <mxCell id="jB3YL_qzwZQaWtv_9ymb-34" value="Veterinarian" style="whiteSpace=wrap;html=1;" vertex="1" parent="1">
          <mxGeometry x="40" y="881.25" width="120" height="38.75" as="geometry" />
        </mxCell>
        <mxCell id="jB3YL_qzwZQaWtv_9ymb-36" value="Provide pet care informatiom&lt;div&gt;Health Check&lt;/div&gt;" style="whiteSpace=wrap;html=1;" vertex="1" parent="1">
          <mxGeometry x="40" y="989.375" width="120" height="60" as="geometry" />
        </mxCell>
      </root>
    </mxGraphModel>
  </diagram>
</mxfile>
